<svg xmlns="http://www.w3.org/2000/svg" xmlns:xlink="http://www.w3.org/1999/xlink" viewBox="0 0 500 499.85"><defs><style>.cls-1{fill:url(#linear-gradient);}.cls-2{fill:none;}.cls-3{isolation:isolate;}.cls-4{opacity:0.1;}.cls-5{clip-path:url(#clip-path);}.cls-6{mask:url(#mask);}.cls-7{fill:#010104;}.cls-8{fill:#231f20;}.cls-9{fill:url(#linear-gradient-2);}.cls-10{fill:url(#linear-gradient-3);}.cls-11{opacity:0.6;}.cls-12{fill:#363539;}.cls-13{fill:url(#linear-gradient-4);}.cls-14{fill:url(#linear-gradient-5);}.cls-15{fill:#104a86;}.cls-16{fill:#07223a;}.cls-17,.cls-23{opacity:0.2;}.cls-17{fill:url(#linear-gradient-6);}.cls-18{mix-blend-mode:multiply;fill:url(#radial-gradient);}.cls-19{fill:url(#linear-gradient-7);}.cls-20{fill:url(#linear-gradient-8);}.cls-21{fill:url(#linear-gradient-9);}.cls-22{fill:url(#linear-gradient-10);}.cls-23{fill:url(#linear-gradient-11);}.cls-24{opacity:0.5;}.cls-25{fill:#fff;}.cls-26{fill:#58595b;}</style><linearGradient id="linear-gradient" x1="251.6" y1="252.49" x2="251.6" y2="507.67" gradientUnits="userSpaceOnUse"><stop offset="0" stop-color="#fff"/><stop offset="0.04" stop-color="#d5d5d5"/><stop offset="0.1" stop-color="#a9a9a9"/><stop offset="0.16" stop-color="#818181"/><stop offset="0.22" stop-color="#5e5e5e"/><stop offset="0.29" stop-color="#404040"/><stop offset="0.37" stop-color="#292929"/><stop offset="0.46" stop-color="#161616"/><stop offset="0.57" stop-color="#0a0a0a"/><stop offset="0.7" stop-color="#020202"/><stop offset="1"/></linearGradient><clipPath id="clip-path"><rect class="cls-2" x="1.6" y="249.94" width="498.4" height="110.71"/></clipPath><mask id="mask" x="29.35" y="249.94" width="444.5" height="256.55" maskUnits="userSpaceOnUse"><rect class="cls-1" x="29.35" y="249.94" width="444.5" height="256.55"/></mask><linearGradient id="linear-gradient-2" x1="251.6" y1="154.63" x2="251.6" y2="162.16" gradientTransform="matrix(1, 0, 0, -1, 0, 411.97)" gradientUnits="userSpaceOnUse"><stop offset="0.49" stop-color="#67686d"/><stop offset="0.79" stop-color="#444548"/><stop offset="0.95" stop-color="#363739"/></linearGradient><linearGradient id="linear-gradient-3" x1="29.35" y1="147.47" x2="473.85" y2="147.47" gradientTransform="matrix(1, 0, 0, -1, 0, 411.97)" gradientUnits="userSpaceOnUse"><stop offset="0" stop-color="#979698"/><stop offset="0" stop-color="#abaaac"/><stop offset="0.01" stop-color="#c5c4c6"/><stop offset="0.01" stop-color="#d9d8da"/><stop offset="0.01" stop-color="#e7e6e8"/><stop offset="0.02" stop-color="#efeef0"/><stop offset="0.03" stop-color="#f2f1f3"/><stop offset="0.03" stop-color="#eeedef"/><stop offset="0.05" stop-color="#dad9dc"/><stop offset="0.08" stop-color="#ccccce"/><stop offset="0.11" stop-color="#c3c3c6"/><stop offset="0.16" stop-color="#c1c1c4"/><stop offset="0.4" stop-color="#dedde1"/><stop offset="0.74" stop-color="#c0c0c3"/><stop offset="0.96" stop-color="#c0c0c3"/><stop offset="0.98" stop-color="#f3f2f4"/><stop offset="1" stop-color="#979698"/></linearGradient><linearGradient id="linear-gradient-4" x1="249.79" y1="140.35" x2="249.79" y2="147.02" gradientTransform="matrix(1, 0, 0, -1, 0, 411.97)" gradientUnits="userSpaceOnUse"><stop offset="0" stop-color="#f2f3f4"/><stop offset="0.72" stop-color="#8a8b8e"/><stop offset="1" stop-color="#363739"/></linearGradient><linearGradient id="linear-gradient-5" x1="293.67" y1="-186.13" x2="300.07" y2="-186.13" gradientTransform="matrix(0.77, -0.63, -0.63, -0.77, -96.04, 534.08)" gradientUnits="userSpaceOnUse"><stop offset="0"/><stop offset="0.66" stop-color="#2e2d2f"/><stop offset="1" stop-color="#414042"/></linearGradient><linearGradient id="linear-gradient-6" x1="350.2" y1="-94.47" x2="444.04" y2="117.9" gradientTransform="matrix(1, 0, 0, -1, 0, 411.97)" gradientUnits="userSpaceOnUse"><stop offset="0" stop-color="#fcfcfd"/><stop offset="0.05" stop-color="#fcfcfd" stop-opacity="0.92"/><stop offset="0.2" stop-color="#fdfdfe" stop-opacity="0.68"/><stop offset="0.35" stop-color="#fefefe" stop-opacity="0.47"/><stop offset="0.5" stop-color="#fefefe" stop-opacity="0.3"/><stop offset="0.64" stop-color="#fefeff" stop-opacity="0.17"/><stop offset="0.77" stop-color="#fff" stop-opacity="0.08"/><stop offset="0.89" stop-color="#fff" stop-opacity="0.02"/><stop offset="1" stop-color="#fff" stop-opacity="0"/></linearGradient><radialGradient id="radial-gradient" cx="530.81" cy="-25964.13" r="65.44" gradientTransform="translate(-1777.64 2337.46) scale(3.82 0.08)" gradientUnits="userSpaceOnUse"><stop offset="0"/><stop offset="0.86" stop-color="#fff" stop-opacity="0"/></radialGradient><linearGradient id="linear-gradient-7" x1="253.2" y1="242.5" x2="253.2" y2="250.03" gradientTransform="matrix(1, 0, 0, 1, 0, 0)" xlink:href="#linear-gradient-2"/><linearGradient id="linear-gradient-8" x1="30.95" y1="235.34" x2="475.45" y2="235.34" gradientTransform="matrix(1, 0, 0, 1, 0, 0)" xlink:href="#linear-gradient-3"/><linearGradient id="linear-gradient-9" x1="251.39" y1="228.22" x2="251.39" y2="234.89" gradientTransform="matrix(1, 0, 0, 1, 0, 0)" xlink:href="#linear-gradient-4"/><linearGradient id="linear-gradient-10" x1="350.54" y1="-119.12" x2="356.94" y2="-119.12" gradientTransform="matrix(0.77, 0.63, -0.63, 0.77, -96.04, -122.11)" xlink:href="#linear-gradient-5"/><linearGradient id="linear-gradient-11" x1="351.8" y1="-6.6" x2="445.64" y2="205.77" gradientTransform="matrix(1, 0, 0, 1, 0, 0)" xlink:href="#linear-gradient-6"/></defs><title>mac_website</title><g class="cls-3"><g id="Calque_2" data-name="Calque 2"><g id="Layer_1" data-name="Layer 1"><g class="cls-4"><g class="cls-5"><g class="cls-6"><path class="cls-7" d="M408.66,499.85H94.55S82,499.52,82,486.68V275.62a7.22,7.22,0,0,1,7.32-5.43H249.62v1.48h4v-1.48H413.85a7.21,7.21,0,0,1,7.32,5.43V486.68C421.17,499.52,408.66,499.85,408.66,499.85Z"/><rect class="cls-8" x="99.73" y="290.44" width="303.74" height="191.63"/><path class="cls-9" d="M251.6,271.67H29.35V257.1s12.6-7.17,21.24-7.17h402c8.64,0,21.24,7.17,21.24,7.17v14.57Z"/><rect class="cls-10" x="29.35" y="257.34" width="444.5" height="14.32"/><path class="cls-11" d="M447.51,265.66a1.15,1.15,0,0,0-1.16-1.15h-13.5a1.15,1.15,0,0,0-1.15,1.15h0a1.15,1.15,0,0,0,1.15,1.15h13.5a1.16,1.16,0,0,0,1.16-1.15Z"/><path class="cls-12" d="M442.58,249.94a2.25,2.25,0,0,1,0,.31,2.49,2.49,0,0,1-4.94,0,1.78,1.78,0,0,1,0-.31Z"/><path class="cls-12" d="M318.08,249.94a1.88,1.88,0,0,1,0,.31,2.49,2.49,0,0,1-4.94,0,2.27,2.27,0,0,1,0-.31Z"/><path class="cls-12" d="M192.3,249.94a1.83,1.83,0,0,1,0,.31,2.49,2.49,0,0,1-4.94,0,1.82,1.82,0,0,1,0-.31Z"/><path class="cls-12" d="M68.13,249.94a1.77,1.77,0,0,1,0,.31,2.49,2.49,0,0,1-4.94,0,1.82,1.82,0,0,1,0-.31Z"/><path class="cls-13" d="M249.79,271.67H216.53s0-6.41,4.1-6.67H279c4.09.26,4.09,6.67,4.09,6.67Z"/><path class="cls-14" d="M254.08,488.19a3.2,3.2,0,1,0-.45,4.51A3.19,3.19,0,0,0,254.08,488.19Z"/><path class="cls-15" d="M252.78,490.21a1.18,1.18,0,1,0-1.19,1.19A1.18,1.18,0,0,0,252.78,490.21Z"/><path class="cls-16" d="M251.94,490.24c-.3-.48-.64-.8-.75-.72s0,.5.34,1,.63.81.75.74S252.24,490.71,251.94,490.24Z"/><path class="cls-17" d="M408.66,499.85H289.81L383,288h38.19V486.68C421.17,499.52,408.66,499.85,408.66,499.85Z"/></g></g></g><path class="cls-18" d="M500,249.94c0,2.91-111.92,5.26-250,5.26S0,252.84,0,249.94s111.93-5.26,250-5.26S500,247,500,249.94Z"/><path class="cls-7" d="M410.26,0H96.15S83.63.33,83.63,13.17V224.23A7.22,7.22,0,0,0,91,229.66H251.23v-1.48h4v1.48H415.45a7.21,7.21,0,0,0,7.32-5.43V13.17C422.77.33,410.26,0,410.26,0Z"/><rect class="cls-8" x="101.33" y="17.78" width="303.74" height="191.63"/><path class="cls-19" d="M253.2,228.18H31v14.57s12.59,7.16,21.24,7.16h402c8.64,0,21.24-7.16,21.24-7.16V228.18Z"/><rect class="cls-20" x="30.95" y="228.18" width="444.5" height="14.33"/><path class="cls-11" d="M449.12,234.19a1.16,1.16,0,0,1-1.16,1.15h-13.5a1.15,1.15,0,0,1-1.15-1.15h0a1.15,1.15,0,0,1,1.15-1.16H448a1.16,1.16,0,0,1,1.16,1.16Z"/><path class="cls-12" d="M444.18,249.91a2.17,2.17,0,0,0,0-.31,2.49,2.49,0,0,0-4.94,0,1.8,1.8,0,0,0,0,.31Z"/><path class="cls-12" d="M319.68,249.91a1.72,1.72,0,0,0,0-.31,2.49,2.49,0,0,0-4.94,0,2.16,2.16,0,0,0,0,.31Z"/><path class="cls-12" d="M193.9,249.91a1.91,1.91,0,0,0,0-.31,2.49,2.49,0,0,0-4.94,0,1.91,1.91,0,0,0,0,.31Z"/><path class="cls-12" d="M69.73,249.91a1.9,1.9,0,0,0,0-.31,2.49,2.49,0,0,0-4.94,0,1.92,1.92,0,0,0,0,.31Z"/><path class="cls-21" d="M251.39,228.18H218.14s0,6.42,4.09,6.67h58.32c4.09-.25,4.09-6.67,4.09-6.67Z"/><path class="cls-22" d="M255.68,11.66a3.2,3.2,0,1,1-.45-4.51A3.2,3.2,0,0,1,255.68,11.66Z"/><circle class="cls-15" cx="253.2" cy="9.64" r="1.18"/><path class="cls-16" d="M253.54,9.61c-.3.47-.64.8-.75.73s0-.51.34-1,.63-.81.75-.74S253.85,9.14,253.54,9.61Z"/><path class="cls-23" d="M410.26,0H291.41l93.17,211.8h38.19V13.17C422.77.33,410.26,0,410.26,0Z"/><g class="cls-24"><path class="cls-25" d="M232.7,221.31l.59-4.09h.07l1.66,3.35,1.65-3.35h.07l.59,4.09h-.4l-.4-2.92-1.45,2.92H235l-1.46-2.95-.4,2.95Z"/><path class="cls-25" d="M241.06,218.29v3h-.38v-.52a1.64,1.64,0,0,1-.55.45,1.48,1.48,0,0,1-.67.15,1.46,1.46,0,0,1-1.1-.47,1.61,1.61,0,0,1,0-2.25,1.5,1.5,0,0,1,1.1-.46,1.45,1.45,0,0,1,.67.16,1.55,1.55,0,0,1,.53.48v-.55Zm-1.56.3a1.16,1.16,0,0,0-.6.16,1.18,1.18,0,0,0-.44.45,1.23,1.23,0,0,0,0,1.22,1.21,1.21,0,0,0,.44.45,1.15,1.15,0,0,0,.59.16,1.22,1.22,0,0,0,.61-.16,1.13,1.13,0,0,0,.44-.43,1.26,1.26,0,0,0,.15-.62,1.2,1.2,0,0,0-.35-.88A1.15,1.15,0,0,0,239.5,218.59Z"/><path class="cls-25" d="M244.87,218.92l-.31.19a1.29,1.29,0,0,0-1.09-.53,1.27,1.27,0,0,0-.92.35,1.18,1.18,0,0,0-.37.87,1.22,1.22,0,0,0,.17.62,1.15,1.15,0,0,0,.46.45,1.34,1.34,0,0,0,.66.16,1.32,1.32,0,0,0,1.09-.53l.31.2a1.42,1.42,0,0,1-.58.51,1.84,1.84,0,0,1-.83.18,1.65,1.65,0,0,1-1.19-.46,1.47,1.47,0,0,1-.47-1.11A1.58,1.58,0,0,1,242,219a1.52,1.52,0,0,1,.6-.58,1.77,1.77,0,0,1,.86-.21,1.83,1.83,0,0,1,.58.09,1.67,1.67,0,0,1,.47.24A1.27,1.27,0,0,1,244.87,218.92Z"/><path class="cls-25" d="M245.69,217.23h.81a1.85,1.85,0,0,1,.75.12.9.9,0,0,1,.41.35,1,1,0,0,1,.15.53,1,1,0,0,1-.13.5,1,1,0,0,1-.39.36,1.51,1.51,0,0,1,.49.25,1,1,0,0,1,.27.35,1.08,1.08,0,0,1,.09.45,1.1,1.1,0,0,1-.36.83,1.34,1.34,0,0,1-1,.34h-1.12Zm.4.4v1.31h.23a1.86,1.86,0,0,0,.63-.08.69.69,0,0,0,.32-.25.68.68,0,0,0,.12-.38.54.54,0,0,0-.2-.44,1,1,0,0,0-.63-.16Zm0,1.72v1.57h.5a1.83,1.83,0,0,0,.66-.09.77.77,0,0,0,.33-.28.71.71,0,0,0,0-.88.94.94,0,0,0-.49-.28,3.76,3.76,0,0,0-.73,0Z"/><path class="cls-25" d="M250.31,218.21a1.5,1.5,0,0,1,1.16.51,1.62,1.62,0,0,1,0,2.2,1.6,1.6,0,0,1-2.27,0,1.62,1.62,0,0,1,0-2.19A1.49,1.49,0,0,1,250.31,218.21Zm0,.38a1.12,1.12,0,0,0-.83.36,1.19,1.19,0,0,0-.35.87,1.22,1.22,0,0,0,.16.61,1.09,1.09,0,0,0,.43.44,1.22,1.22,0,0,0,1.19,0,1.1,1.1,0,0,0,.43-.44,1.24,1.24,0,0,0-.19-1.47A1.12,1.12,0,0,0,250.31,218.59Z"/><path class="cls-25" d="M254,218.21a1.5,1.5,0,0,1,1.16.51,1.62,1.62,0,0,1,0,2.2,1.6,1.6,0,0,1-2.27,0,1.62,1.62,0,0,1,0-2.19A1.49,1.49,0,0,1,254,218.21Zm0,.38a1.12,1.12,0,0,0-.83.36,1.24,1.24,0,0,0-.19,1.47,1.08,1.08,0,0,0,.43.44,1.21,1.21,0,0,0,1.19,0,1.11,1.11,0,0,0,.43-.44,1.22,1.22,0,0,0,.16-.61,1.19,1.19,0,0,0-.35-.87A1.12,1.12,0,0,0,254,218.59Z"/><path class="cls-25" d="M256.33,217.12h.39v2.39l1.4-1.22h.57L257,219.73l1.76,1.58h-.55L256.71,220v1.36h-.39Z"/><path class="cls-25" d="M259.24,217.23h.81a4.58,4.58,0,0,1,.95.06,1,1,0,0,1,.79,1,1,1,0,0,1-.22.67,1.08,1.08,0,0,1-.6.36,5.18,5.18,0,0,1-1,.07h-.29v1.9h-.41Zm.41.4V219h.69a1.76,1.76,0,0,0,.61-.08.63.63,0,0,0,.31-.25.68.68,0,0,0,.11-.38.66.66,0,0,0-.11-.37.62.62,0,0,0-.29-.25,1.78,1.78,0,0,0-.6-.07Z"/><path class="cls-25" d="M259.71,221.37h-.53v-4.2h.87a4.73,4.73,0,0,1,1,.06,1.07,1.07,0,0,1,.84,1.08,1.08,1.08,0,0,1-.23.71,1.15,1.15,0,0,1-.63.38,5.43,5.43,0,0,1-1.05.07h-.23Zm-.41-.12h.29v-1.9h.35a5.42,5.42,0,0,0,1-.06,1,1,0,0,0,.57-.34,1,1,0,0,0,.2-.64,1,1,0,0,0-.21-.64,1,1,0,0,0-.54-.33,4.49,4.49,0,0,0-.93-.06h-.75Zm1-2.17h-.75v-1.5h.78a1.78,1.78,0,0,1,.62.08.68.68,0,0,1,.32.26.75.75,0,0,1,.12.41.76.76,0,0,1-.12.41.68.68,0,0,1-.33.27A1.89,1.89,0,0,1,260.35,219.08Zm-.63-.13h.63a1.76,1.76,0,0,0,.59-.07.56.56,0,0,0,.28-.23.61.61,0,0,0,.1-.34.62.62,0,0,0-.1-.34.55.55,0,0,0-.27-.22,1.72,1.72,0,0,0-.57-.07h-.66Z"/><path class="cls-25" d="M262.4,218.29h.4v.44a1.39,1.39,0,0,1,.37-.39.75.75,0,0,1,.41-.13.71.71,0,0,1,.34.1l-.2.33a.55.55,0,0,0-.21-.05.58.58,0,0,0-.38.16,1,1,0,0,0-.27.5,4.71,4.71,0,0,0-.07,1v1h-.4Z"/><path class="cls-25" d="M262.86,221.37h-.52v-3.14h.52v.32a1.17,1.17,0,0,1,.28-.26.72.72,0,0,1,.82,0l.05,0-.26.42,0,0a.53.53,0,0,0-.18,0,.5.5,0,0,0-.33.14,1,1,0,0,0-.26.47,4.76,4.76,0,0,0-.07,1Zm-.4-.12h.28v-1a4.68,4.68,0,0,1,.07-1.06,1.09,1.09,0,0,1,.29-.53.63.63,0,0,1,.41-.17.49.49,0,0,1,.18,0l.14-.23a.6.6,0,0,0-.64.05,1.34,1.34,0,0,0-.36.38l-.11.16v-.58h-.28Z"/><path class="cls-25" d="M265.67,218.21a1.49,1.49,0,0,1,1.16.51,1.62,1.62,0,0,1,0,2.2,1.6,1.6,0,0,1-2.27,0,1.62,1.62,0,0,1,0-2.19A1.49,1.49,0,0,1,265.67,218.21Zm0,.38a1.11,1.11,0,0,0-.83.36,1.2,1.2,0,0,0-.35.87,1.21,1.21,0,0,0,.16.61,1.11,1.11,0,0,0,.43.44,1.18,1.18,0,0,0,.59.16,1.16,1.16,0,0,0,.59-.16,1.11,1.11,0,0,0,.43-.44,1.21,1.21,0,0,0,.16-.61,1.19,1.19,0,0,0-.35-.87A1.12,1.12,0,0,0,265.67,218.59Z"/><path class="cls-25" d="M265.67,221.45a1.54,1.54,0,0,1-1.18-.49,1.68,1.68,0,0,1,0-2.28,1.63,1.63,0,0,1,2.4,0,1.68,1.68,0,0,1,0,2.28A1.54,1.54,0,0,1,265.67,221.45Zm0-3.18a1.45,1.45,0,0,0-1.12.49,1.56,1.56,0,0,0,0,2.12,1.53,1.53,0,0,0,2.18,0,1.56,1.56,0,0,0,0-2.12A1.44,1.44,0,0,0,265.67,218.27Zm0,2.81a1.28,1.28,0,0,1-.62-.16,1.23,1.23,0,0,1-.45-.46,1.31,1.31,0,0,1-.16-.64,1.27,1.27,0,0,1,.37-.91,1.21,1.21,0,0,1,1.75,0,1.27,1.27,0,0,1,.37.91,1.28,1.28,0,0,1-.16.64,1.23,1.23,0,0,1-.45.46A1.29,1.29,0,0,1,265.67,221.08Zm0-2.43a1.07,1.07,0,0,0-.79.34,1.14,1.14,0,0,0-.33.82,1.16,1.16,0,0,0,.15.58,1.08,1.08,0,0,0,.41.42,1.17,1.17,0,0,0,1.13,0,1.09,1.09,0,0,0,.41-.42,1.16,1.16,0,0,0,.15-.58,1.13,1.13,0,0,0-.33-.82A1.06,1.06,0,0,0,265.67,218.65Z"/></g><path class="cls-26" d="M267.5,129.18l39.42,56.64,8.7-17.53L339.39,184a1,1,0,0,0,1.16,0c.58-.45,6.38-5.39,6.38-5.39a.54.54,0,0,0,0-.9c-.58-.45-23.19-16.18-23.19-16.18l22-9.44Z"/><path class="cls-26" d="M322.87,142"/><path class="cls-26" d="M322.87,142s28.41-40-21.45-75.52c0,0-56.82-40.9-118.27,8.09,0,0-46.38,40.9,7.54,87.2,0,0,41.74,31.91,98.56,9l3.48,3.15s-35.95,22.48-93.34-.45c0,0-48.7-20.23-40-71,0,0,17.39-64.28,103.78-55.29,0,0,65.51,1.8,74.79,65.63,0,0-.58,17.08-8.12,30.57Z"/><path class="cls-26" d="M318.81,94.79s-7-14.83-12.75-17.08c0,0-1.16-.9-6.38,1.35l-5.8,3.15-1.16.45S291,83.1,291,84c0,0-.58-.45-.58,1.35l4.06,8.09s8.7-.45,16.81,7.19c0,0,6.38,5.84,6.38,11.24,0,0-.58.45,2.32.45s3.48-1.35,3.48-1.35S322.87,100.64,318.81,94.79Z"/></g></g></g></svg>